<?xml version="1.0" encoding="utf-8"?>
<!-- Generator: Adobe Illustrator 23.0.4, SVG Export Plug-In . SVG Version: 6.00 Build 0)  -->
<svg version="1.1" id="Layer_1" xmlns="http://www.w3.org/2000/svg" xmlns:xlink="http://www.w3.org/1999/xlink" x="0px" y="0px"
	 viewBox="0 0 542.36 554.07" style="enable-background:new 0 0 542.36 554.07;" xml:space="preserve">
<style type="text/css">
	.st0{fill:#FFFFFF;}
	.st1{fill:#394439;}
	.st2{fill:none;stroke:#394439;stroke-width:10;stroke-miterlimit:10;}
</style>
<rect x="401.22" y="184.94" transform="matrix(0.9891 0.1474 -0.1474 0.9891 52.1195 -57.2302)" class="st0" width="21.96" height="276.21"/>
<rect x="122.04" y="230.14" transform="matrix(0.9813 -0.1925 0.1925 0.9813 -64.4233 32.8646)" class="st0" width="29.76" height="235.67"/>
<rect x="79.51" y="74.29" class="st0" width="395.6" height="60.36"/>
<rect x="120.79" y="28.06" class="st0" width="305.13" height="65.66"/>
<polygon class="st0" points="84.43,83.04 451.9,83.04 389.59,525.99 164.99,525.99 "/>
<g>
	<path class="st1" d="M460.68,68.03h-24.89l-6.91-33.53c-1.52-7.38-8.09-12.73-15.62-12.73H131.86c-7.53,0-14.1,5.35-15.62,12.73
		l-6.92,33.53H84.43c-10.99,0-19.93,8.94-19.93,19.93v32.96c0,10.99,8.94,19.94,19.93,19.94h9.78l5.54,38.95
		c-1.68,0.97-3.21,2.21-4.51,3.7c-3.33,3.84-4.83,8.93-4.11,13.96l37,259.99c1.02,7.17,6.41,12.86,13.21,14.54l5.27,37.02
		c2.01,14.12,14.28,24.76,28.54,24.76h194.82c14.26,0,26.52-10.64,28.54-24.76l5.27-37.02c6.8-1.68,12.19-7.37,13.21-14.54
		l37-259.99c0.71-5.04-0.79-10.12-4.11-13.96c-1.3-1.5-2.83-2.73-4.52-3.7l5.55-38.95h9.78c10.99,0,19.93-8.95,19.93-19.94V87.96
		C480.61,76.97,471.67,68.03,460.68,68.03z M439.11,195.35l-37,259.99c-0.18,1.23-1.25,2.16-2.49,2.16h-71.85
		c-4.14,0-7.5,3.36-7.5,7.51s3.36,7.51,7.5,7.51h60.75l-4.89,34.38c-0.96,6.76-6.84,11.86-13.67,11.86H175.15
		c-6.83,0-12.71-5.1-13.67-11.86l-4.89-34.38h136.25c4.15,0,7.51-3.36,7.51-7.51s-3.36-7.51-7.51-7.51H145.49
		c-1.24,0-2.31-0.93-2.49-2.16l-37-259.99c-0.14-0.99,0.31-1.68,0.59-2c0.27-0.31,0.86-0.8,1.77-0.85c0.1,0,0.2-0.01,0.3-0.02
		h327.79c0.1,0.01,0.2,0.02,0.3,0.02c0.91,0.05,1.5,0.54,1.77,0.85C438.81,193.67,439.25,194.36,439.11,195.35z M109.38,140.86
		h326.35l-5.21,36.61H114.59L109.38,140.86z M465.6,120.92c0,2.71-2.21,4.92-4.92,4.92H84.43c-2.71,0-4.92-2.21-4.92-4.92V87.96
		c0-2.71,2.21-4.92,4.92-4.92h67.18c4.14,0,7.5-3.36,7.5-7.51c0-4.14-3.36-7.5-7.5-7.5h-26.95l6.29-30.49
		c0.09-0.43,0.48-0.75,0.92-0.75h281.39c0.44,0,0.83,0.32,0.92,0.75l6.29,30.49H186.54c-4.15,0-7.51,3.36-7.51,7.5
		c0,4.15,3.36,7.51,7.51,7.51h274.13c2.71,0,4.92,2.21,4.92,4.92V120.92z"/>
</g>
<circle class="st1" cx="281.54" cy="277.77" r="13.37"/>
<circle class="st1" cx="357.3" cy="277.77" r="13.37"/>
<path class="st2" d="M275.87,383.49c7.56-42.15,39.65-63.18,59.02-57.55c14.5,4.22,25.15,24.32,26.68,47.71"/>
<g>
</g>
<g>
</g>
<g>
</g>
<g>
</g>
<g>
</g>
<g>
</g>
</svg>
