<?xml version="1.0" encoding="utf-8"?>
<!-- Generator: Adobe Illustrator 23.0.4, SVG Export Plug-In . SVG Version: 6.00 Build 0)  -->
<svg version="1.1" id="Layer_1" xmlns="http://www.w3.org/2000/svg" xmlns:xlink="http://www.w3.org/1999/xlink" x="0px" y="0px"
	 viewBox="0 0 542.4 554.1" style="enable-background:new 0 0 542.4 554.1;" xml:space="preserve">
<style type="text/css">
	.st0{fill:#FFFFFF;}
	.st1{fill:#394439;}
	.st2{fill:none;stroke:#394439;stroke-width:10;stroke-miterlimit:10;}
</style>
<rect x="274.1" y="312.1" transform="matrix(0.1474 -0.9891 0.9891 0.1474 31.928 683.1424)" class="st0" width="276.2" height="22"/>
<rect x="122" y="230.1" transform="matrix(0.9813 -0.1925 0.1925 0.9813 -64.4242 32.8655)" class="st0" width="29.8" height="235.7"/>
<rect x="79.5" y="74.3" class="st0" width="395.6" height="60.4"/>
<rect x="120.8" y="28.1" class="st0" width="305.1" height="65.7"/>
<polygon class="st0" points="84.4,83 451.9,83 389.6,526 165,526 "/>
<g>
	<path class="st1" d="M460.7,68h-24.9l-6.9-33.5c-1.5-7.4-8.1-12.7-15.6-12.7H131.9c-7.5,0-14.1,5.4-15.6,12.7L109.3,68H84.4
		C73.4,68,64.5,77,64.5,88v33c0,11,8.9,19.9,19.9,19.9h9.8l5.5,38.9c-1.7,1-3.2,2.2-4.5,3.7c-3.3,3.8-4.8,8.9-4.1,14l37,260
		c1,7.2,6.4,12.9,13.2,14.5l5.3,37c2,14.1,14.3,24.8,28.5,24.8H370c14.3,0,26.5-10.6,28.5-24.8l5.3-37c6.8-1.7,12.2-7.4,13.2-14.5
		l37-260c0.7-5-0.8-10.1-4.1-14c-1.3-1.5-2.8-2.7-4.5-3.7l5.5-38.9h9.8c11,0,19.9-8.9,19.9-19.9V88C480.6,77,471.7,68,460.7,68z
		 M439.1,195.4l-37,260c-0.2,1.2-1.2,2.2-2.5,2.2h-71.9c-4.1,0-7.5,3.4-7.5,7.5s3.4,7.5,7.5,7.5h60.8l-4.9,34.4
		c-1,6.8-6.8,11.9-13.7,11.9H175.1c-6.8,0-12.7-5.1-13.7-11.9l-4.9-34.4h136.2c4.1,0,7.5-3.4,7.5-7.5s-3.4-7.5-7.5-7.5H145.5
		c-1.2,0-2.3-0.9-2.5-2.2l-37-260c-0.1-1,0.3-1.7,0.6-2c0.3-0.3,0.9-0.8,1.8-0.9c0.1,0,0.2,0,0.3,0h327.8c0.1,0,0.2,0,0.3,0
		c0.9,0.1,1.5,0.5,1.8,0.9C438.8,193.7,439.2,194.4,439.1,195.4z M109.4,140.9h326.4l-5.2,36.6H114.6L109.4,140.9z M465.6,120.9
		c0,2.7-2.2,4.9-4.9,4.9H84.4c-2.7,0-4.9-2.2-4.9-4.9V88c0-2.7,2.2-4.9,4.9-4.9h67.2c4.1,0,7.5-3.4,7.5-7.5c0-4.1-3.4-7.5-7.5-7.5
		h-26.9l6.3-30.5c0.1-0.4,0.5-0.8,0.9-0.8h281.4c0.4,0,0.8,0.3,0.9,0.8l6.3,30.5H186.5c-4.1,0-7.5,3.4-7.5,7.5
		c0,4.2,3.4,7.5,7.5,7.5h274.1c2.7,0,4.9,2.2,4.9,4.9L465.6,120.9L465.6,120.9z"/>
</g>
<path class="st2" d="M361.6,373.6"/>
<path class="st2" d="M334.9,325.9"/>
<path class="st2" d="M275.9,383.5"/>
</svg>
