<svg version="1.1" xmlns="http://www.w3.org/2000/svg" xmlns:xlink="http://www.w3.org/1999/xlink" x="0px" y="0px"
	 viewBox="0 0 128 128" style="enable-background:new 0 0 128 128;" xml:space="preserve">
<style type="text/css">
	.fire1{fill:#C45930;}
	.fire2{fill:#D6A429;}
</style>
<g>
	<path class="fire1" d="M98.6,51.2c-4.2,0.9-7.9,3.3-9.6,7.3c-1,2.5-2.5,8.9-6.4,7.2c-1.9-0.8-1.9-3.5-1.6-5.2c0.5-3.5,2-6.6,3.1-9.9
		c1.1-3.4,2.1-6.9,2.7-10.4c2.3-11.7,1.7-25.2-6.6-34.6c-1.4-1.6-4.9-5.3-7.3-5.4c-1.4,0,0,1.7,0.4,2.2c0.8,1.2,1.5,2.4,2,3.8
		c6.1,15.6-9,27.5-18.9,36.8c-4.8,4.5-8.6,9.2-12,14.7c-0.3,0.5-1.1,2.3-2.1,1.9c-1.2-0.4-1.3-3.1-1.6-4c-0.7-1.9-1.7-3.9-3.1-5.4
		c-2.6-2.9-6.3-4.8-10.2-4.5c-0.1,0-0.6,0.1-1.1,0.2c-0.8,0.2-3,0.5-2.5,1.8c0.3,0.7,1.2,0.6,1.9,0.8c8.3,2.6,8.1,11.3,6.8,18.3
		c-2.4,12.8-9.2,24.9-4.4,38c5.7,15.5,23.4,25.2,39.5,22.5c4.4-0.7,9.4-2.1,13.4-4.3c4.2-2.3,8.8-5.3,12.1-8.8
		c4.2-4.5,6.9-10.2,7.7-16.3c0.9-7-1.3-13.6-3.3-20.3c-2.5-8-5.3-21.1,4.9-25c0.5-0.2,1.5-0.3,1.8-0.9C105.4,49.9,99.2,51,98.6,51.2
		z"/>
	<path class="fire2" d="M68.1,106.1c2.1,1.8,5.1,0.9,7.1-0.6c1.1-0.8,2-1.8,2.6-3.1c0.2-0.5,0.5-1.2,0.5-1.8c0-0.8-0.5-1.6-0.3-2.4
		c1.7-0.3,3.8,4.5,4,5.6c1.7,8.8-6.6,16.1-14.7,17.5c-13.5,2.4-21.3-9.5-19.8-20c1-6.6,5.4-11.1,9.8-15.6c3.7-3.7,7.2-6.9,8.3-11.8
		c0.2-0.9,0.2-2.2-0.1-3c-0.2-0.7-0.6-1.4-0.6-2.2c-0.1-1.7,1.6,0.5,1.9,0.9c4.5,5,5.7,12.5,4.5,19c-0.8,4.2-3.8,7.2-4.8,11.2
		C66.1,102.2,66.2,104.4,68.1,106.1z"/>
</g>
</svg>
