<?xml version="1.0" encoding="utf-8"?>
<!-- Generator: Adobe Illustrator 23.0.4, SVG Export Plug-In . SVG Version: 6.00 Build 0)  -->
<svg version="1.1" id="Layer_1" xmlns="http://www.w3.org/2000/svg" xmlns:xlink="http://www.w3.org/1999/xlink" x="0px" y="0px"
	 viewBox="0 0 212.98 212.98" style="enable-background:new 0 0 212.98 212.98;" xml:space="preserve">
<style type="text/css">
	.st0{fill-rule:evenodd;clip-rule:evenodd;fill:#FFFFFF;}
</style>
<g>
	<g id="Close_1_">
		<path class="st0" d="M131.8,106.49l75.94-75.94c6.99-6.99,6.99-18.32,0-25.31c-6.99-6.99-18.32-6.99-25.31,0l-75.94,75.94
			L30.55,5.24c-6.99-6.99-18.32-6.99-25.31,0c-6.99,6.99-6.99,18.32,0,25.31l75.94,75.94L5.24,182.43c-6.99,6.99-6.99,18.32,0,25.31
			c6.99,6.99,18.32,6.99,25.31,0l75.94-75.94l75.94,75.94c6.99,6.99,18.32,6.99,25.31,0c6.99-6.99,6.99-18.32,0-25.31L131.8,106.49z
			"/>
	</g>
	<g>
	</g>
	<g>
	</g>
	<g>
	</g>
	<g>
	</g>
	<g>
	</g>
	<g>
	</g>
	<g>
	</g>
	<g>
	</g>
	<g>
	</g>
	<g>
	</g>
	<g>
	</g>
	<g>
	</g>
	<g>
	</g>
	<g>
	</g>
	<g>
	</g>
</g>
<g>
</g>
<g>
</g>
<g>
</g>
<g>
</g>
<g>
</g>
<g>
</g>
</svg>
